<?xml version="1.0" encoding="UTF-8"?>
<svg width="53px" height="34px" viewBox="0 0 53 34" version="1.1" xmlns="http://www.w3.org/2000/svg" xmlns:xlink="http://www.w3.org/1999/xlink">
    <!-- Generator: Sketch 53.2 (72643) - https://sketchapp.com -->
    <title>分组 2</title>
    <desc>Created with Sketch.</desc>
    <g id="页面" stroke="none" stroke-width="1" fill="none" fill-rule="evenodd">
        <g id="2填写消息1" transform="translate(-187.000000, -639.000000)">
            <g id="分组-2" transform="translate(187.000000, 639.000000)">
                <g id="host_cloud_tenant" transform="translate(15.000000, 5.000000)" fill="#E8713A">
                    <path d="M5.75,6.16216216 C5.75,9.20719159 8.18134254,11.6756757 11.1805556,11.6756757 C14.1797686,11.6756757 16.6111111,9.20719159 16.6111111,6.16216216 C16.6111111,3.11713273 14.1797686,0.648648649 11.1805556,0.648648649 C8.18134254,0.648648649 5.75,3.11713273 5.75,6.16216216 Z" id="路径" fill-opacity="0.488035402"></path>
                    <path d="M10.8611111,12.972973 C7.33809524,12.972973 4.47222222,10.0633205 4.47222222,6.48648649 C4.47222222,2.90965251 7.33809524,0 10.8611111,0 C14.3832143,0 17.25,2.90965251 17.25,6.48648649 C17.25,10.0633205 14.3832143,12.972973 10.8611111,12.972973 Z M10.8611111,1.85328185 C8.34480159,1.85328185 6.29761905,3.93173745 6.29761905,6.48648649 C6.29761905,9.04123552 8.34480159,11.1196911 10.8611111,11.1196911 C13.3774206,11.1196911 15.4246032,9.04123552 15.4246032,6.48648649 C15.4246032,3.93173745 13.3774206,1.85328185 10.8611111,1.85328185 Z" id="形状" fill-rule="nonzero"></path>
                    <path d="M19.4987305,24 L0.945713963,24 C0.423410563,24 0,23.5837313 0,23.0702377 L0,22.181385 C0,16.7943424 4.56023273,11.027027 11.3485676,11.027027 C11.870871,11.027027 12.2942815,11.4432958 12.2942815,11.9567893 C12.2942815,12.4702828 11.870871,12.8865516 11.3485676,12.8865516 C5.70927519,12.8865516 1.91412506,17.6636701 1.89142793,22.1404755 L19.4987305,22.1404755 C20.0210339,22.1404755 20.4444444,22.5567442 20.4444444,23.0702377 C20.4444444,23.5837313 20.0210339,24 19.4987305,24 Z" id="路径"></path>
                    <path d="M19.1650115,24 C18.63551,24 18.2062643,23.6006866 18.2062643,23.1081087 C18.2062643,22.6155307 18.63551,22.2162173 19.1650115,22.2162173 C20.2225095,22.2162173 21.0825057,21.4161908 21.0825057,20.4324347 C21.0806306,19.677827 20.5690214,19.0057851 19.8044734,18.7536311 C19.0399254,18.5014772 18.1875231,18.7236575 17.6751184,19.3086516 C17.5153032,19.4927332 17.2832106,19.6099686 17.0302139,19.634408 C16.7772172,19.6588474 16.524183,19.588475 16.3271199,19.4388677 C16.1294618,19.2900576 16.0036059,19.0741774 15.9773427,18.8388956 C15.9510795,18.6036138 16.0265692,18.3682836 16.1871428,18.1848685 C16.9140201,17.3484774 18.0088523,16.8631713 19.1650115,16.8648693 C21.2800076,16.8648693 23,18.4649224 23,20.4324347 C23,22.3999469 21.2800076,24 19.1650115,24 L19.1650115,24 Z" id="路径"></path>
                    <path d="M16.9848043,14.9189184 C16.789662,14.9189866 16.5997909,14.8531242 16.4438339,14.731267 C14.9098781,13.5365994 13.0424499,12.8948484 11.1253448,12.9035417 C10.626564,12.9035417 10.2222222,12.4834696 10.2222222,11.9652844 C10.2222222,11.4470991 10.626564,11.027027 11.1253448,11.027027 C13.4626261,11.027027 15.6761796,11.788892 17.527581,13.2300552 C17.8386995,13.4724714 17.9655072,13.8945794 17.8423425,14.2778095 C17.7191777,14.6610397 17.373702,14.9193227 16.9848043,14.9189184 Z" id="路径"></path>
                </g>
                <rect id="矩形" stroke="#E8713A" stroke-width="1.5" fill-rule="nonzero" x="0.75" y="0.75" width="51.5" height="32.5" rx="4"></rect>
            </g>
        </g>
    </g>
</svg>