<?xml version="1.0" encoding="UTF-8"?>
<svg width="53px" height="34px" viewBox="0 0 53 34" version="1.1" xmlns="http://www.w3.org/2000/svg" xmlns:xlink="http://www.w3.org/1999/xlink">
    <!-- Generator: Sketch 53.2 (72643) - https://sketchapp.com -->
    <title>db_ora_user_tablespace</title>
    <desc>Created with Sketch.</desc>
    <g id="页面" stroke="none" stroke-width="1" fill="none" fill-rule="evenodd">
        <g id="2填写消息1" transform="translate(-352.000000, -769.000000)">
            <g id="db_ora_user_tablespace" transform="translate(352.000000, 769.000000)">
                <rect id="矩形" stroke="#2594A5" stroke-width="1.5" fill-rule="nonzero" x="0.75" y="0.75" width="51.5" height="32.5" rx="4"></rect>
                <g id="分组" transform="translate(6.000000, 7.000000)">
                    <path d="M6.44827586,6.59999998 C6.44827585,7.24307805 6.83933225,7.83730669 7.47413792,8.15884572 C8.10894358,8.48038476 8.89105642,8.48038476 9.52586208,8.15884572 C10.1606677,7.83730669 10.5517242,7.24307805 10.5517241,6.59999998 C10.5517241,5.60588744 9.63313595,4.8 8.5,4.8 C7.36686405,4.8 6.44827586,5.60588744 6.44827586,6.59999998 L6.44827586,6.59999998 Z" id="路径" fill="#F4BA9F" opacity="0.351143973"></path>
                    <path d="M8.49872989,8.4 C5.93817816,8.4 4.68965517,10.1531113 4.68965517,11.6989253 C4.68965517,11.6989253 5.06941954,12.6 8.49872989,12.6 C11.9305805,12.6 12.3103448,11.6989253 12.3103448,11.6989253 C12.3103448,10.1531113 11.0618218,8.4 8.49872989,8.4 Z" id="路径" fill="#F4BA9F" opacity="0.351143973"></path>
                    <path d="M8.5,18 C8.40103571,18 8.30207143,17.976 8.21221429,17.9286 L0.319357143,13.7274 C0.122668363,13.6226154 2.72370637e-05,13.4196198 0,13.1988 L0,4.8 C0,4.46862915 0.271827116,4.2 0.607142857,4.2 C0.942458598,4.2 1.21428571,4.46862915 1.21428571,4.8 L1.21428571,12.84 L8.5,16.7184 L15.7857143,12.84 L15.7857143,4.8 C15.7857143,4.46862915 16.0575414,4.2 16.3928571,4.2 C16.7281729,4.2 17,4.46862915 17,4.8 L17,13.1988 C17,13.4196 16.8773571,13.6224 16.68125,13.7274 L8.78839286,17.9286 C8.69960794,17.9753257 8.60058985,17.9998405 8.5,18 Z" id="路径" fill="#2594A5"></path>
                    <path d="M16.391925,5.39999947 C16.2914677,5.40013212 16.1925839,5.37537342 16.1043403,5.32799348 L8.48851324,1.28125665 L0.872686213,5.32859353 C0.579458541,5.46790488 0.227068879,5.3549064 0.0728093503,5.07210227 C-0.0814501786,4.78929813 0.01701006,4.43676757 0.296300773,4.27190557 L8.20032052,0.071555956 C8.38028897,-0.0238519853 8.59673751,-0.0238519853 8.77670596,0.071555956 L16.6807257,4.27190557 C16.9257452,4.40242354 17.0496234,4.680521 16.9814184,4.9469388 C16.9132134,5.2133566 16.6703563,5.4000067 16.391925,5.39999947 Z" id="路径" fill="#2594A5"></path>
                    <path d="M8.50030878,9.6 C7.04594203,9.6 5.86206897,8.38879697 5.86206897,6.9 C5.86206897,5.41120303 7.04594203,4.2 8.50030878,4.2 C9.95467554,4.2 11.137931,5.41120303 11.137931,6.9 C11.137931,8.38879697 9.9552931,9.6 8.50030878,9.6 L8.50030878,9.6 Z M8.50030878,5.47629402 C7.72649921,5.47629402 7.09719997,6.11507918 7.09719997,6.9 C7.09719997,7.68492082 7.72649921,8.32370598 8.50030878,8.32370598 C9.27411835,8.32370598 9.90280003,7.68492082 9.90280003,6.9 C9.90280003,6.11507918 9.27411835,5.47629402 8.50030878,5.47629402 L8.50030878,5.47629402 Z" id="形状" fill="#2594A5" fill-rule="nonzero"></path>
                    <path d="M8.71937417,13.8 C4.98798094,13.8 4.27428685,12.8165863 4.1443444,12.5142588 C4.11719917,12.4513843 4.10335003,12.3848551 4.1034488,12.3178025 C4.1034488,10.4189138 5.72146322,8.4 8.71937417,8.4 C9.08366471,8.4 9.37898054,8.65347687 9.37898054,8.96615643 C9.37898054,9.27883599 9.08366471,9.53231285 8.71937417,9.53231285 C6.43449771,9.53231285 5.52424092,11.0190396 5.43057682,12.1275739 C5.66209865,12.2860977 6.45296669,12.667121 8.71937417,12.667121 C9.08384686,12.667121 9.37931034,12.9207246 9.37931034,13.2335605 C9.37931034,13.5463964 9.08384686,13.8 8.71937417,13.8 L8.71937417,13.8 Z" id="路径" fill="#2594A5"></path>
                    <path d="M9.39642676,13.8 C9.1203534,13.8 8.89655172,13.5652746 8.89655172,13.2757261 C8.89655172,12.9861777 9.1203534,12.7514522 9.39642676,12.7514522 C11.1149971,12.7514522 11.715347,12.3986159 11.8903033,12.2518192 C11.819321,11.225291 11.1294935,9.84854776 9.39642676,9.84854776 C9.1203534,9.84854776 8.89655172,9.61382235 8.89655172,9.32427388 C8.89655172,9.03472541 9.1203534,8.8 9.39642676,8.8 C11.6698584,8.8 12.8965517,10.6695607 12.8965517,12.4279753 C12.8965517,12.4898396 12.8860543,12.5511796 12.8655595,12.6098983 C12.7670841,12.8882877 12.2262193,13.8 9.39642676,13.8 L9.39642676,13.8 Z" id="路径" fill="#2594A5"></path>
                </g>
                <path d="M46.2139738,10 L29.7860262,10 C29.3144105,10 29,10.3007519 29,10.7518797 C29,11.2030075 29.3144105,11.5037594 29.7860262,11.5037594 L46.2139738,11.5037594 C46.6855895,11.5037594 47,11.2030075 47,10.7518797 C47,10.3007519 46.6069869,10 46.2139738,10 L46.2139738,10 Z" id="路径" fill="#2594A5"></path>
                <path d="M47,15.037594 C47,14.5864662 46.6855895,14.2857143 46.2139738,14.2857143 L29.7860262,14.2857143 C29.3144105,14.2857143 29,14.5864661 29,15.037594 C29,15.4887218 29.3144105,15.7894737 29.7860262,15.7894737 L46.2139738,15.7894737 C46.6069869,15.7894737 47,15.4135338 47,15.037594 L47,15.037594 Z" id="路径" fill="#2594A5"></path>
                <path d="M29.7860262,18.4962406 C29.3144105,18.4962406 29,18.7969925 29,19.2481203 C29,19.6992481 29.3144105,20 29.7860262,20 L38.6681223,20 C39.139738,20 39.4541485,19.6992481 39.4541485,19.2481203 C39.4541485,18.7969924 39.139738,18.4962406 38.6681223,18.4962406 L29.7860262,18.4962406 Z" id="路径" fill="#2594A5"></path>
            </g>
        </g>
    </g>
</svg>
