<?xml version="1.0" standalone="no"?><!DOCTYPE svg PUBLIC "-//W3C//DTD SVG 1.1//EN" "http://www.w3.org/Graphics/SVG/1.1/DTD/svg11.dtd"><svg t="1564902354509" class="icon" viewBox="0 0 1024 1024" version="1.1" xmlns="http://www.w3.org/2000/svg" p-id="15628" xmlns:xlink="http://www.w3.org/1999/xlink" width="64" height="64"><defs><style type="text/css"></style></defs><path d="M992 550.4l-134.4-134.4c-12.8-12.8-32-12.8-44.8 0s-12.8 32 0 44.8L896 544h-256c-19.2 0-32 12.8-32 32s12.8 32 32 32h249.6l-76.8 76.8c-12.8 12.8-12.8 32 0 44.8 6.4 6.4 12.8 6.4 25.6 6.4s19.2 0 25.6-6.4l134.4-134.4c6.4-12.8 6.4-32-6.4-44.8z" p-id="15629" fill="#ffffff"></path><path d="M928 416c19.2 0 32-12.8 32-32V320c0-38.4-25.6-64-64-64h-64v-32c0-51.2-44.8-96-96-96h-576C108.8 128 64 172.8 64 224V832c0 38.4 25.6 64 64 64h768c38.4 0 64-25.6 64-64v-64c0-19.2-12.8-32-32-32s-32 12.8-32 32v64H128V320h768v64c0 19.2 12.8 32 32 32zM768 256H160c-19.2 0-32-12.8-32-32s12.8-32 32-32h576c19.2 0 32 12.8 32 32V256z" p-id="15630" fill="#ffffff"></path></svg>