<?xml version="1.0" encoding="UTF-8"?>
<svg width="39px" height="39px" viewBox="0 0 39 39" version="1.1" xmlns="http://www.w3.org/2000/svg" xmlns:xlink="http://www.w3.org/1999/xlink">
    <!-- Generator: Sketch 53.2 (72643) - https://sketchapp.com -->
    <title>发现 copy</title>
    <desc>Created with Sketch.</desc>
    <g id="页面" stroke="none" stroke-width="1" fill="none" fill-rule="evenodd">
        <g id="12参与计划首页-无数据" transform="translate(-121.000000, -1253.000000)">
            <rect fill="#FFFFFF" x="0" y="0" width="750" height="1334"></rect>
            <g id="分组" transform="translate(0.000000, 1235.000000)" fill-rule="nonzero">
                <g id="发现" transform="translate(121.000000, 18.000000)">
                    <path d="M38.9873736,19.5369052 C38.9873736,30.288638 30.2270172,38.9736762 19.4091555,38.9736762 C8.77298282,38.9736762 0.0126263509,30.2837173 0.0126263509,19.5369052 C0.0126263509,8.79009316 8.68459356,0.0115617199 19.5024553,0.0115617199 C30.2270172,0.0115617199 38.9873736,8.7900932 38.9873736,19.5369052 Z" id="Shape" fill="#E8713A"></path>
                    <path d="M30.4087062,8.5194546 C30.8555629,8.96723844 30.9439522,9.59216753 30.6787845,9.95137877 L24.059412,23.5718805 C23.8826335,23.8425191 23.7009445,24.108237 23.4357767,24.1968096 L10.0251638,30.6478492 C9.84838533,30.7364219 9.66669632,30.8249945 9.4899178,30.8249945 C9.13145031,30.8249945 8.77298282,30.7364218 8.50781508,30.4657833 C8.06095833,30.1065721 7.97256907,29.481643 8.23773681,28.9452865 L14.7638095,15.2411328 C14.8521988,14.9704942 15.122277,14.7047764 15.3874448,14.6162038 L28.886447,8.25373672 C29.421693,7.98309812 30.0502387,8.07167076 30.4087062,8.5194546 Z M19.5024553,22.228529 C20.9314147,22.228529 22.1835957,21.0623227 22.1835957,19.541826 C22.1835957,18.0213292 20.9314147,16.855123 19.5024553,16.855123 C17.9851065,16.855123 16.8213148,18.0213292 16.8213148,19.541826 C16.8213147,21.0623227 17.980196,22.228529 19.5024553,22.228529 Z" id="Combined-Shape" fill="#FFFFFF"></path>
                </g>
                <g id="发现-copy" transform="translate(121.000000, 18.000000)">
                    <path d="M38.9873736,19.5369052 C38.9873736,30.288638 30.2270172,38.9736762 19.4091555,38.9736762 C8.77298282,38.9736762 0.0126263509,30.2837173 0.0126263509,19.5369052 C0.0126263509,8.79009316 8.68459356,0.0115617199 19.5024553,0.0115617199 C30.2270172,0.0115617199 38.9873736,8.7900932 38.9873736,19.5369052 Z" id="Shape" fill="#E8713A"></path>
                    <path d="M30.4087062,8.5194546 C30.8555629,8.96723844 30.9439522,9.59216753 30.6787845,9.95137877 L24.059412,23.5718805 C23.8826335,23.8425191 23.7009445,24.108237 23.4357767,24.1968096 L10.0251638,30.6478492 C9.84838533,30.7364219 9.66669632,30.8249945 9.4899178,30.8249945 C9.13145031,30.8249945 8.77298282,30.7364218 8.50781508,30.4657833 C8.06095833,30.1065721 7.97256907,29.481643 8.23773681,28.9452865 L14.7638095,15.2411328 C14.8521988,14.9704942 15.122277,14.7047764 15.3874448,14.6162038 L28.886447,8.25373672 C29.421693,7.98309812 30.0502387,8.07167076 30.4087062,8.5194546 Z M19.5024553,22.228529 C20.9314147,22.228529 22.1835957,21.0623227 22.1835957,19.541826 C22.1835957,18.0213292 20.9314147,16.855123 19.5024553,16.855123 C17.9851065,16.855123 16.8213148,18.0213292 16.8213148,19.541826 C16.8213147,21.0623227 17.980196,22.228529 19.5024553,22.228529 Z" id="Combined-Shape" fill="#FFFFFF"></path>
                </g>
            </g>
        </g>
    </g>
</svg>
