<?xml version="1.0" encoding="UTF-8"?>
<svg width="42px" height="30px" viewBox="0 0 42 30" version="1.1" xmlns="http://www.w3.org/2000/svg" xmlns:xlink="http://www.w3.org/1999/xlink">
    <!-- Generator: Sketch 53.2 (72643) - https://sketchapp.com -->
    <title>分组</title>
    <desc>Created with Sketch.</desc>
    <g id="页面" stroke="none" stroke-width="1" fill="none" fill-rule="evenodd">
        <g id="12参与计划首页-无数据" transform="translate(-588.000000, -1258.000000)">
            <rect fill="#FFFFFF" x="0" y="0" width="750" height="1334"></rect>
            <g id="分组" transform="translate(0.000000, 1235.000000)">
                <g id="资产-选中" transform="translate(588.000000, 23.000000)" fill="#3680F4">
                    <path d="M42,7.27272727 L0,7.27272727 L0,4 C-2.705415e-16,1.790861 1.790861,4.05812251e-16 4,0 L38,0 C40.209139,-4.05812251e-16 42,1.790861 42,4 L42,7.27272727 Z M42,10 L42,26 C42,28.209139 40.209139,30 38,30 L4,30 C1.790861,30 2.705415e-16,28.209139 0,26 L0,10 L42,10 Z M26.6950372,21.8181818 L26,24.5454545 L36.3049628,24.5454545 L37,21.8181818 L26.6950372,21.8181818 Z" id="Combined-Shape"></path>
                </g>
                <g id="资产-选中" transform="translate(588.000000, 23.000000)" fill="#C2C1CB">
                    <path d="M42,7.27272727 L0,7.27272727 L0,4 C-2.705415e-16,1.790861 1.790861,4.05812251e-16 4,0 L38,0 C40.209139,-4.05812251e-16 42,1.790861 42,4 L42,7.27272727 Z M42,10 L42,26 C42,28.209139 40.209139,30 38,30 L4,30 C1.790861,30 2.705415e-16,28.209139 0,26 L0,10 L42,10 Z M26.6950372,21.8181818 L26,24.5454545 L36.3049628,24.5454545 L37,21.8181818 L26.6950372,21.8181818 Z" id="Combined-Shape"></path>
                </g>
            </g>
        </g>
    </g>
</svg>
