<?xml version="1.0" standalone="no"?><!DOCTYPE svg PUBLIC "-//W3C//DTD SVG 1.1//EN" "http://www.w3.org/Graphics/SVG/1.1/DTD/svg11.dtd"><svg t="1564902226010" class="icon" viewBox="0 0 1024 1024" version="1.1" xmlns="http://www.w3.org/2000/svg" p-id="13410" xmlns:xlink="http://www.w3.org/1999/xlink" width="64" height="64"><defs><style type="text/css"></style></defs><path d="M979 285.72v-45.846c0-23.306-8.961-45.657-24.913-62.136C938.135 161.258 916.501 152 893.942 152H131.058c-22.559 0-44.193 9.258-60.145 25.738C54.961 194.218 46 216.568 46 239.874V463.65c0 15.072 11.827 27.29 26.416 27.29s26.415-12.218 26.415-27.29V239.874c0-18.388 14.429-33.294 32.227-33.294h762.884c17.798 0 32.227 14.906 32.227 33.294v18.01h-237.74c-60.16 4.227-106.867 55.874-106.867 118.166 0 62.293 46.708 113.94 106.866 118.166h237.74v290.91c0 18.388-14.428 33.294-32.226 33.294H131.058c-17.798 0-32.227-14.906-32.227-33.294V654.681H484.5l-58.114 60.037c-6.7 6.923-9.317 17.012-6.865 26.468 2.453 9.456 9.602 16.842 18.755 19.376 9.153 2.534 18.92-0.17 25.62-7.092l101.436-105.885c4.977-5.038 7.826-11.905 7.925-19.103-0.148-7.847-3.625-15.23-9.51-20.194L462.84 504.04c-10.359-10.7-27.152-10.7-37.51 0-10.359 10.701-10.359 28.05 0 38.752l57.057 58.946H72.416c-7.006 0-13.725 2.875-18.679 7.993C48.783 614.85 46 621.791 46 629.028v156.098c0 23.306 8.961 45.657 24.913 62.136C86.865 863.742 108.499 873 131.058 873h762.884c22.559 0 44.193-9.258 60.145-25.738 15.952-16.48 24.913-38.83 24.913-62.136V467.472c0-7.238-2.783-14.18-7.737-19.297-4.954-5.118-11.673-7.993-18.679-7.993H688.428c-31.79-3.046-56.104-30.603-56.104-63.586s24.314-60.54 56.104-63.585h264.156c7.006 0 13.725-2.876 18.679-7.993 4.954-5.118 7.737-12.06 7.737-19.297z" p-id="13411" fill="#ffffff"></path><path d="M691.009 355C678.3 355 668 366.64 668 381s10.301 26 23.009 26h57.982C761.7 407 772 395.36 772 381s-10.301-26-23.009-26H691.01z" p-id="13412" fill="#ffffff"></path></svg>