<?xml version="1.0" encoding="UTF-8"?>
<svg width="29px" height="29px" viewBox="0 0 29 29" version="1.1" xmlns="http://www.w3.org/2000/svg" xmlns:xlink="http://www.w3.org/1999/xlink">
    <!-- Generator: Sketch 53.2 (72643) - https://sketchapp.com -->
    <title>扫码</title>
    <desc>Created with Sketch.</desc>
    <g id="页面" stroke="none" stroke-width="1" fill="none" fill-rule="evenodd">
        <g id="40ZBX提币" transform="translate(-624.000000, -318.000000)" fill="#2F54EB">
            <g id="扫码" transform="translate(624.000000, 318.000000)">
                <path d="M2.10653753,7.62408596 C2.10653753,8.20577119 1.6349891,8.67735472 1.05326877,8.67735472 C0.471548426,8.67735472 0,8.20577119 0,7.62408596 L0,2.10653753 C0,0.943131961 0.943131961,0 2.10653753,0 L26.8934625,0 C28.056868,0 29,0.943131961 29,2.10653753 L29,7.62408596 C29,8.20577119 28.5284516,8.67735472 27.9467312,8.67735472 C27.3650109,8.67735472 26.8934625,8.20577119 26.8934625,7.62408596 L26.8934625,2.10653753 L2.10653753,2.10653753 L2.10653753,7.62408596 Z M26.8934625,21.3652058 C26.8934625,20.7835206 27.3650109,20.311937 27.9467312,20.311937 C28.5284516,20.311937 29,20.7835206 29,21.3652058 L29,26.8934625 C29,28.056868 28.056868,29 26.8934625,29 L2.10653753,29 C0.943131961,29 0,28.056868 0,26.8934625 L0,21.3652058 C0,20.7835206 0.471548426,20.311937 1.05326877,20.311937 C1.6349891,20.311937 2.10653753,20.7835206 2.10653753,21.3652058 L2.10653753,26.8934625 L26.8934625,26.8934625 L26.8934625,21.3652058 Z" id="形状" fill-rule="nonzero"></path>
                <path d="M3.05485232,16 C2.47225738,16 2,15.5523 2,15 C2,14.4477 2.47225738,14 3.05485232,14 L25.9451477,14 C26.5277426,14 27,14.4477 27,15 C27,15.5523 26.5277426,16 25.9451477,16 L3.05485232,16 Z" id="路径"></path>
            </g>
        </g>
    </g>
</svg>