<?xml version="1.0" encoding="UTF-8"?>
<svg width="40px" height="38px" viewBox="0 0 40 38" version="1.1" xmlns="http://www.w3.org/2000/svg" xmlns:xlink="http://www.w3.org/1999/xlink">
    <!-- Generator: Sketch 53.2 (72643) - https://sketchapp.com -->
    <title>分组</title>
    <desc>Created with Sketch.</desc>
    <g id="页面" stroke="none" stroke-width="1" fill="none" fill-rule="evenodd">
        <g id="12参与计划首页-无数据" transform="translate(-356.000000, -1254.000000)">
            <rect fill="#FFFFFF" x="0" y="0" width="750" height="1334"></rect>
            <g id="分组" transform="translate(0.000000, 1235.000000)" fill="#C2C1CB" fill-rule="nonzero">
                <g id="钱袋子" transform="translate(356.000000, 19.000000)">
                    <path d="M11.0952399,7.90000001 C11.0952399,7.90000001 14.9910724,10.9657143 20,10.9657143 C25.0089276,10.9657143 29.0160696,7.90000001 29.0160696,7.90000001 C29.0160696,7.90000001 33.3571401,4.20000003 31.13095,2.61428571 C28.90476,1.02857139 25.565475,3.14285715 25.565475,3.14285715 C25.5654751,3.14285715 23.0053565,0.5 20,0.5 C16.9946435,0.5 14.5458345,3.14285715 14.5458345,3.14285715 C14.5458345,3.14285715 11.2065494,1.02857144 8.98035944,2.61428571 C6.75416943,4.19999998 11.09524,7.90000001 11.0952399,7.90000001 L11.0952399,7.90000001 Z M38.4773771,28.3028572 C38.4773771,28.3028572 39.9244006,24.2857143 36.5851156,17.7314286 C33.0232116,10.86 28.236903,10.7542857 28.236903,10.7542857 C28.236903,10.7542857 24.674999,12.8685714 20,12.8685714 C15.325001,12.8685714 11.8744064,10.7542857 11.8744064,10.7542857 C11.8744064,10.7542857 6.97678843,10.7542857 3.4148844,17.8371429 C0.186908884,24.18 1.52262291,28.4085715 1.52262291,28.4085715 C1.52262291,28.4085715 -6.04642315,37.5 20,37.5 C46.0464231,37.5 38.4773771,28.3028572 38.4773771,28.3028572 L38.4773771,28.3028572 Z M19.8886905,33.6942857 C14.657144,33.6942857 10.4273829,29.6771429 10.4273829,24.8142857 C10.4273829,19.9514286 14.657144,15.9342857 19.8886905,15.9342857 C25.120237,15.9342857 29.349998,19.9514286 29.3499981,24.8142857 C29.3499981,29.6771429 25.1202371,33.6942858 19.8886905,33.6942857 Z M13.989287,24.3914286 L20.1113095,30.2057143 L26.233332,24.3914286 L20.1113095,18.5771429 L13.989287,24.3914286 Z" id="形状"></path>
                </g>
            </g>
        </g>
    </g>
</svg>
